# xmcd
#
# Track frame offsets:
#	150
#	14897
#	28185
#	38010
#	49440
#	60140
#	73640
#	94190
#	116235
#	131765
#	145185
#	152765
#	173982
#	189740
#	207515
#	227545
#	255060
#	268360
#	280477
#	303080
#
# Disc length: 4256 seconds
#
# Revision: 4
# Processed by: cddbd v1.5.2PL0 Copyright (c) Steve Scherf et al.
# Submitted via: EZCDAudioConverter 7.1.5.1
#
DISCID=2a109e14
DTITLE=Various Artist - Checkin' Out The Blues
DYEAR=1990
DGENRE=Blues
TTITLE0=Muddy Waters - Baby Please Don't  Go
TTITLE1=Muddy Waters - Rollin' And Tumblin'
TTITLE2=John Lee Hooker - Dimples
TTITLE3=John Lee Hooker - Boom Boom
TTITLE4=Lightning Slim - My Babe
TTITLE5=Lightning Slim - Good Morning Heartache
TTITLE6=Etta James - I'd Rather Go Blind
TTITLE7=Etta James - Respect Yourself
TTITLE8=Otis Rush and Little Walter - Blue Mood
TTITLE9=Otis Rush and Little Walter - I Feel Good
TTITLE10=Mississippi John Hurt - I'm Satisfied
TTITLE11=Mississippi John Hurt - Monday Morning Blues
TTITLE12=Howlin' Wolf - Killin' Floor
TTITLE13=Howlin' Wolf - Goin' Down Slow
TTITLE14=Buddy Guy and Junior Wells - Everyday I Have The Blues
TTITLE15=Buddy Guy and Junior Wells - Out Of Sitght
TTITLE16=Elmore James - Dust My Broom
TTITLE17=Elmore James - Mean Mistreatin' Mama
TTITLE18=B. B. King - Everyday I Have The Blues
TTITLE19=B. B. King - The Letter
EXTD=
EXTT0=
EXTT1=
EXTT2=
EXTT3=
EXTT4=
EXTT5=
EXTT6=
EXTT7=
EXTT8=
EXTT9=
EXTT10=
EXTT11=
EXTT12=
EXTT13=
EXTT14=
EXTT15=
EXTT16=
EXTT17=
EXTT18=
EXTT19=
PLAYORDER=
